<svg version="1.1" id="Layer_1" xmlns="http://www.w3.org/2000/svg" xmlns:xlink="http://www.w3.org/1999/xlink" x="0px" y="0px"
	 viewBox="0 0 512 512" style="enable-background:new 0 0 512 512;" xml:space="preserve">
<style type="text/css">
	.st0{fill:#24A870;}
	.st1{fill:#FFFFFF;}
</style>
<path class="st0" d="M493.2,126.2c-5-17.5-17-31.9-32.2-41.9C425.2,65.8,382.3,56,339.3,56H172.7c-43,0-85.9,9.8-121.7,28.3
	c-15.2,7.8-27.2,20.2-32.2,35.6c-5,15.4-5,32.9,0,48.3c11.6,35.6,37.6,63.4,70.9,78.2c35.6,15.9,75.3,23.8,115.1,23.8h166.7
	c43,0,85.9-9.8,121.7-28.3c15.2-7.8,27.2-20.2,32.2-35.6C498.2,163.2,498.2,141.7,493.2,126.2z"/>
<path class="st0" d="M18.8,385.8c5,17.5,17,31.9,32.2,41.9c35.8,18.5,78.7,28.3,121.7,28.3h166.7c43,0,85.9-9.8,121.7-28.3
	c15.2-7.8,27.2-20.2,32.2-35.6c5-15.4,5-32.9,0-48.3c-11.6-35.6-37.6-63.4-70.9-78.2c-35.6-15.9-75.3-23.8-115.1-23.8H172.7
	c-43,0-85.9,9.8-121.7,28.3c-15.2,7.8-27.2,20.2-32.2,35.6C13.8,348.8,13.8,370.3,18.8,385.8z"/>
<path class="st1" d="M339.3,101.3H172.7c-30.8,0-61.7,7.1-88.7,20.5C62,130.5,45.1,146.4,36,166.1c-9.1,19.7,2.8,42.8,22.5,51.9
	c25.4,11.8,54.4,17.7,83.4,17.7h166.7c30.8,0,61.7-7.1,88.7-20.5c22.1-11.2,35.1-30.8,35.1-51.9c0-21.1-13-40.7-35.1-51.9
	C401,108.4,370.1,101.3,339.3,101.3z"/>
<path class="st1" d="M172.7,410.7h166.7c30.8,0,61.7-7.1,88.7-20.5c22.1-11.2,35.1-30.8,35.1-51.9c0-21.1-13-40.7-35.1-51.9
	c-27-13.4-57.9-20.5-88.7-20.5H172.7c-30.8,0-61.7,7.1-88.7,20.5c-22.1,11.2-35.1,30.8-35.1,51.9c0,21.1,13,40.7,35.1,51.9
	C111,403.6,141.9,410.7,172.7,410.7z"/>
</svg> 